<svg fill="none" height="165" viewBox="0 0 165 165" width="165" xmlns="http://www.w3.org/2000/svg" xmlns:xlink="http://www.w3.org/1999/xlink"><linearGradient id="a" gradientUnits="userSpaceOnUse" x1="164.851" x2="27.2982" y1=".640629" y2="184.68"><stop offset="0" stop-color="#045de9"/><stop offset="1" stop-color="#09c6f9"/></linearGradient><rect fill="url(#a)" height="164" rx="16" width="164" x=".48584" y=".640625"/><path clip-rule="evenodd" d="m103.671 46.0305 20.813 12.0405v48.965l-11.295 6.536c-1.802 1.042-3.609 2.083-5.303 3.06l-.003.001c-1.744 1.006-3.37 1.943-4.749 2.741.004.09.006.181.006.272 0 3.106-2.518 5.624-5.6239 5.624-3.1061 0-5.6241-2.518-5.6241-5.624s2.518-5.624 5.6241-5.624c1.0762 0 2.0818.302 2.9369.826l7.404-4.257 11.41-6.537v-43.0015l-18.29-10.4925-18.3478-10.5497-2.9242 1.72c-1.6054.9174-2.6947 1.8348-2.4654 2.0068.1705.0682 2.9577 1.678 7.1188 4.0813l.0001.0001c1.0778.6225 2.2479 1.2983 3.4885 2.0144l-.0299.0028 8.6577 4.9319c7.5802 4.3122 17.6892 9.3909 17.6892 9.3909s-4.831 2.3957-16.1539 8.9118c-8.0603 4.5997-14.8731 8.3369-15.161 8.3369-1.4393 0-30.3212-17.2008-30.3212-17.2008l6.8803-4.0135 3.674 1.9533s3.6463 2.0123 4.2221 2.0123c1.5353 0 15.8983-9.4125 15.8983-9.4125l-6.3069-4.0135c0-.0094.0018-.0194.0055-.0302-6.2385-3.6031-10.8341-6.3265-11.0141-6.5065-.344-.2867 15.366-9.8618 16.6847-10.1485.172-.0573 9.6898 5.3323 21.0992 11.9832zm-29.4388 23.0548s2.5717 1.3019 4.4908 2.2602c2.0151 1.0541 4.1261 2.1829 4.1261 2.1829l15.7919-9.6173s-2.1662-1.19-4.2772-2.3399l-3.8382-2.0123-7.6765 4.408c-4.222 2.4914-8.6169 5.1184-8.6169 5.1184zm-13.2732-14.0038c-1.0969 0-2.1205-.314-2.9857-.8571-.9032.5324-1.8671 1.0947-2.8654 1.6684l-9.1737 5.1602v43.002l5.6189 3.211c1.6596.939 4.8583 2.785 8.5593 4.92l.006.004.0098.006.0022.001.0035.002c3.0703 1.772 6.4846 3.742 9.652 5.559 8.371 4.816 14.5135 8.356 14.5135 8.356s.0498-3.712.1645-21.944l.172-20.1253 13.1872-7.6257c4.8289-2.836 9.4019-5.4671 12.1599-7.0542l.001-.0006c1.368-.787 2.289-1.3172 2.574-1.4882l1.606-.8601v34.1721l-6.307 3.67v-26.9483l-5.734 3.0962v27.1771l-5.7333 3.096v-13.1871c0-7.2816-.0547-13.6527-.0547-13.6527s-1.8373 1.0389-3.2134 1.8416l-2.4654 1.4907v38.7595l-8.0271 4.701-21.0995-12.155-21.0423-12.155v-48.6784l9.1737-5.3323c2.0176-1.1692 4.0123-2.2795 5.6799-3.1909-.0041-.0872-.0061-.1749-.0061-.2631 0-3.1061 2.518-5.6241 5.6242-5.6241 3.1061 0 5.6241 2.518 5.6241 5.6241 0 3.1062-2.518 5.6242-5.6241 5.6242zm-9.8392 46.1055 14.6206 8.428c8.0271 4.644 14.678 8.486 14.7927 8.486.0573.057.1147-2.867.1147-6.364v-6.479l-6.307-3.67v2.523 2.937s-4.6442-2.478-9.1164-5.001l-8.0843-4.7016v-9.6897c0-5.8483-.0615-10.0217-.0615-10.0217s4.763 2.74 9.1779 5.2628l8.027 4.5869.0573 3.1534v3.2108l3.1535 1.7775 3.1535 1.8347v-13.4739l-14.3913-8.2564c-7.9697-4.5868-14.85-8.5431-15.1367-8.6005 0 0-.0573 7.2247 0 16.9144z" fill="#fff" fill-rule="evenodd"/></svg>